<?xml version="1.0" standalone="no"?>
<!DOCTYPE svg PUBLIC "-//W3C//DTD SVG 20010904//EN"
 "http://www.w3.org/TR/2001/REC-SVG-20010904/DTD/svg10.dtd">
<svg version="1.0" xmlns="http://www.w3.org/2000/svg"
 width="962.000000pt" height="374.000000pt" viewBox="0 0 962.000000 374.000000"
 preserveAspectRatio="xMidYMid meet">

<g transform="translate(0.000000,374.000000) scale(0.100000,-0.100000)"
fill="#000000" stroke="none">
<path d="M849 3362 l-34 -30 -3 -106 -4 -106 -111 0 c-97 0 -117 -3 -151 -23
-21 -12 -47 -38 -57 -57 -18 -33 -19 -83 -19 -1153 0 -1244 -4 -1164 67 -1208
32 -20 43 -21 127 -15 50 4 127 11 171 16 122 14 346 12 485 -5 287 -34 542
-137 733 -296 80 -67 109 -67 180 -1 145 135 362 231 641 283 142 27 445 36
601 19 216 -23 237 -23 272 -1 18 11 40 35 50 53 17 31 18 94 16 1155 -2 1238
2 1157 -65 1205 -30 21 -46 23 -160 26 l-128 4 0 103 c0 96 -2 106 -24 132
l-24 28 -164 -1 c-308 -3 -582 -70 -838 -206 -99 -53 -169 -99 -233 -155 l-38
-34 -47 41 c-145 128 -383 244 -627 304 -108 27 -267 46 -426 53 l-155 6 -35
-31z m356 -152 c340 -38 620 -157 848 -360 37 -33 74 -60 82 -60 8 0 45 27 82
61 88 78 215 162 318 209 185 86 434 146 648 157 l117 6 0 -1015 0 -1015 -172
-6 c-390 -12 -716 -128 -934 -330 l-61 -56 -34 35 c-55 57 -178 146 -264 191
-207 107 -460 163 -737 163 l-118 0 0 1015 0 1015 68 0 c37 0 108 -5 157 -10z
m-395 -1166 c0 -827 2 -919 16 -950 27 -56 47 -61 274 -67 219 -5 312 -19 480
-72 187 -59 372 -181 448 -295 58 -86 56 -100 -9 -56 -102 70 -293 151 -448
192 -207 54 -547 70 -806 39 -66 -8 -123 -15 -127 -15 -5 0 -8 482 -8 1070 l0
1070 90 0 90 0 0 -916z m2850 -155 l0 -1071 -32 6 c-87 16 -240 26 -405 26
-383 0 -679 -74 -945 -238 -73 -45 -81 -41 -54 22 42 101 226 234 425 306 153
56 303 81 531 87 217 6 248 12 272 56 9 17 11 237 9 950 l-3 927 101 0 101 0
0 -1071z"/>
<path d="M1672 2530 c0 -14 2 -19 5 -12 2 6 2 18 0 25 -3 6 -5 1 -5 -13z"/>
<path d="M1672 2475 c0 -16 2 -22 5 -12 2 9 2 23 0 30 -3 6 -5 -1 -5 -18z"/>
<path d="M1672 2385 c0 -16 2 -22 5 -12 2 9 2 23 0 30 -3 6 -5 -1 -5 -18z"/>
<path d="M1675 1940 c0 -228 1 -322 2 -208 2 115 2 301 0 415 -1 115 -2 21 -2
-207z"/>
<path d="M1818 1403 c7 -3 16 -2 19 1 4 3 -2 6 -13 5 -11 0 -14 -3 -6 -6z"/>
<path d="M4230 1910 l0 -480 205 0 205 0 0 80 0 80 -125 0 -125 0 0 400 0 400
-80 0 -80 0 0 -480z"/>
<path d="M4750 1910 l0 -480 210 0 210 0 0 80 0 80 -130 0 -130 0 0 125 0 125
105 0 105 0 0 80 0 80 -105 0 -105 0 0 110 0 110 125 0 126 0 -3 83 -3 82
-202 3 -203 2 0 -480z"/>
<path d="M5456 2382 c-6 -9 -34 -127 -136 -567 -44 -192 -83 -358 -86 -367 -5
-16 3 -18 79 -18 l85 0 22 96 c17 75 25 94 37 90 8 -3 54 -6 102 -6 l88 0 19
-87 19 -88 87 -3 c68 -2 87 0 83 10 -6 20 -225 933 -225 941 0 10 -168 9 -174
-1z m119 -434 c15 -73 30 -143 33 -155 4 -22 2 -23 -68 -23 -64 0 -72 2 -68
18 3 9 18 79 33 155 16 75 32 137 35 137 4 0 19 -60 35 -132z"/>
<path d="M5940 1911 l0 -481 85 0 85 0 0 173 0 174 38 1 39 2 47 -153 c68
-219 51 -197 151 -197 47 0 85 1 85 3 0 1 -29 90 -65 196 l-64 193 34 33 c63
59 90 162 75 283 -5 40 -18 89 -29 110 -22 43 -89 107 -129 124 -15 6 -100 13
-189 16 l-163 4 0 -481z m291 302 c40 -24 64 -88 56 -153 -11 -93 -43 -126
-132 -132 l-40 -3 -3 153 -3 152 47 0 c25 0 59 -8 75 -17z"/>
<path d="M6590 1910 l0 -480 80 0 80 0 2 281 3 282 69 -179 c38 -99 87 -225
109 -281 l39 -103 85 0 85 0 -4 478 -3 477 -77 3 -78 3 -2 -293 -3 -293 -27
75 c-14 41 -65 172 -111 290 l-85 215 -81 3 -81 3 0 -481z"/>
<path d="M7290 1920 c0 -259 -1 -473 -2 -477 -2 -5 34 -9 80 -11 l82 -3 0 206
0 205 105 0 105 0 0 -205 0 -205 80 0 80 0 0 480 0 480 -80 0 -80 0 0 -195 0
-195 -105 0 -105 0 0 195 0 195 -80 0 -80 0 0 -470z"/>
<path d="M7962 1998 c3 -353 5 -397 21 -433 42 -93 128 -145 242 -145 120 1
207 56 245 157 19 50 20 78 20 433 l0 380 -80 0 -79 0 -3 -372 c-3 -400 -4
-404 -55 -427 -43 -20 -82 -13 -114 18 -35 35 -32 6 -33 441 l-1 335 -83 3
-83 3 3 -393z"/>
<path d="M8630 1911 l0 -481 148 0 c220 0 284 26 339 137 54 111 31 260 -49
328 l-31 26 36 30 c85 70 88 260 5 355 -60 68 -93 77 -280 82 l-168 4 0 -481z
m280 314 c44 -23 64 -68 57 -128 -11 -87 -50 -121 -131 -115 l-41 3 -2 115
c-1 63 0 121 2 128 6 17 80 15 115 -3z m4 -389 c88 -36 88 -205 0 -242 -49
-20 -119 -15 -118 9 0 9 1 69 2 132 l2 115 40 0 c22 0 55 -6 74 -14z"/>
</g>
</svg>
